<svg width="24" height="24" viewBox="0 0 24 24" fill="none" xmlns="http://www.w3.org/2000/svg">
<g filter="url(#filter0_d_101_1611)">
<path fill-rule="evenodd" clip-rule="evenodd" d="M12 16C16.4183 16 20 12.4183 20 8C20 3.58172 16.4183 0 12 0C7.58172 0 4 3.58172 4 8C4 12.4183 7.58172 16 12 16Z" fill="#2A2A2A"/>
</g>
<g filter="url(#filter1_d_101_1611)">
<path d="M10.6251 12C10.4651 12 10.3052 11.9441 10.183 11.8327C9.93898 11.6096 9.93898 11.2477 10.183 11.0246L13.4912 7.99996L10.183 4.97551C9.93898 4.75236 9.93898 4.3905 10.183 4.16736C10.4271 3.94421 10.8229 3.94421 11.067 4.16736L14.817 7.59596C15.061 7.81911 15.061 8.18097 14.817 8.40411L11.067 11.8327C10.9449 11.9441 10.7851 12 10.6251 12Z" fill="white"/>
</g>
<defs>
<filter id="filter0_d_101_1611" x="0" y="0" width="24" height="24" filterUnits="userSpaceOnUse" color-interpolation-filters="sRGB">
<feFlood flood-opacity="0" result="BackgroundImageFix"/>
<feColorMatrix in="SourceAlpha" type="matrix" values="0 0 0 0 0 0 0 0 0 0 0 0 0 0 0 0 0 0 127 0" result="hardAlpha"/>
<feOffset dy="4"/>
<feGaussianBlur stdDeviation="2"/>
<feColorMatrix type="matrix" values="0 0 0 0 0 0 0 0 0 0 0 0 0 0 0 0 0 0 0.02 0"/>
<feBlend mode="normal" in2="BackgroundImageFix" result="effect1_dropShadow_101_1611"/>
<feBlend mode="normal" in="SourceGraphic" in2="effect1_dropShadow_101_1611" result="shape"/>
</filter>
<filter id="filter1_d_101_1611" x="6" y="4" width="13" height="16" filterUnits="userSpaceOnUse" color-interpolation-filters="sRGB">
<feFlood flood-opacity="0" result="BackgroundImageFix"/>
<feColorMatrix in="SourceAlpha" type="matrix" values="0 0 0 0 0 0 0 0 0 0 0 0 0 0 0 0 0 0 127 0" result="hardAlpha"/>
<feOffset dy="4"/>
<feGaussianBlur stdDeviation="2"/>
<feColorMatrix type="matrix" values="0 0 0 0 0 0 0 0 0 0 0 0 0 0 0 0 0 0 0.02 0"/>
<feBlend mode="normal" in2="BackgroundImageFix" result="effect1_dropShadow_101_1611"/>
<feBlend mode="normal" in="SourceGraphic" in2="effect1_dropShadow_101_1611" result="shape"/>
</filter>
</defs>
</svg>
