<svg width="24" height="24" viewBox="0 0 24 24" fill="none" xmlns="http://www.w3.org/2000/svg">
<g clip-path="url(#clip0_101_1249)">
<path d="M23.5037 6.47058C23.3646 5.99513 23.0993 5.56196 22.7334 5.21292C22.3675 4.86388 21.9134 4.61079 21.4149 4.4781C19.5442 4.00001 12.0154 4.00001 12.0154 4.00001C12.0154 4.00001 4.50565 3.99047 2.61595 4.4781C2.11752 4.61079 1.66341 4.86388 1.29751 5.21292C0.9316 5.56196 0.666273 5.99513 0.527171 6.47058C0.17256 8.29751 -0.00226533 10.1521 0.00497681 12.01C-0.000896236 13.861 0.173923 15.7084 0.527171 17.5285C0.666273 18.0039 0.9316 18.4371 1.29751 18.7861C1.66341 19.1352 2.11752 19.3883 2.61595 19.521C4.48464 20 12.0154 20 12.0154 20C12.0154 20 19.5242 20 21.4149 19.521C21.9134 19.3883 22.3675 19.1352 22.7334 18.7861C23.0993 18.4371 23.3646 18.0039 23.5037 17.5285C23.8496 15.7078 24.017 13.8603 24.0039 12.01C24.0184 10.1527 23.8509 8.29817 23.5037 6.47058ZM9.61255 15.4368V8.5728L15.8789 12.01L9.61255 15.4368Z" fill="white"/>
</g>
<defs>
<clipPath id="clip0_101_1249">
<rect width="24" height="24" fill="white"/>
</clipPath>
</defs>
</svg>
